<?xml version="1.0" encoding="UTF-8" standalone="no"?>
<!-- Created with Inkscape (http://www.inkscape.org/) -->

<svg
   xmlns:dc="http://purl.org/dc/elements/1.1/"
   xmlns:cc="http://creativecommons.org/ns#"
   xmlns:rdf="http://www.w3.org/1999/02/22-rdf-syntax-ns#"
   xmlns:svg="http://www.w3.org/2000/svg"
   xmlns="http://www.w3.org/2000/svg"
   xmlns:sodipodi="http://sodipodi.sourceforge.net/DTD/sodipodi-0.dtd"
   xmlns:inkscape="http://www.inkscape.org/namespaces/inkscape"
   width="700"
   height="300"
   viewBox="0 0 185.20832 79.375002"
   version="1.1"
   id="svg8"
   inkscape:version="0.92.3 (2405546, 2018-03-11)"
   sodipodi:docname="how-we-do-bg.svg"
   inkscape:export-filename="D:\Projects\aarya-portal\img\how-we-do-bg.png"
   inkscape:export-xdpi="95.599998"
   inkscape:export-ydpi="95.599998">
  <defs
     id="defs2" />
  <sodipodi:namedview
     id="base"
     pagecolor="#ffffff"
     bordercolor="#666666"
     borderopacity="1.0"
     inkscape:pageopacity="0.0"
     inkscape:pageshadow="2"
     inkscape:zoom="1"
     inkscape:cx="375.71429"
     inkscape:cy="160"
     inkscape:document-units="mm"
     inkscape:current-layer="layer1"
     showgrid="false"
     units="px"
     inkscape:window-width="1366"
     inkscape:window-height="705"
     inkscape:window-x="-8"
     inkscape:window-y="-8"
     inkscape:window-maximized="1" />
  <metadata
     id="metadata5">
    <rdf:RDF>
      <cc:Work
         rdf:about="">
        <dc:format>image/svg+xml</dc:format>
        <dc:type
           rdf:resource="http://purl.org/dc/dcmitype/StillImage" />
        <dc:title />
      </cc:Work>
    </rdf:RDF>
  </metadata>
  <g
     inkscape:groupmode="layer"
     id="layer2"
     inkscape:label="Layer 2"
     sodipodi:insensitive="true">
    <path
       style="fill:#f7b519;fill-opacity:0.83425413;stroke:none;stroke-width:0.28751126"
       d="M 115.3447,78.542404 C 97.079427,78.341784 66.935347,78.024533 48.357847,77.837393 29.780357,77.650253 14.497576,77.407934 14.396122,77.298905 14.140344,77.024064 1.0628037,7.582043 1.2337817,7.406613 c 0.07603,-0.078 4.642911,-0.31539 10.1486283,-0.52753 19.143667,-0.73763 132.04587,-4.57111 157.32469,-5.34182 5.30785,-0.16182 11.03386,-0.36904 12.72446,-0.46048 l 3.07382,-0.16627997 -0.17507,1.54603997 c -0.0963,0.85033 -1.06504,10.52315 -2.15277,21.49513 -3.04445,30.709421 -5.38065,53.663031 -5.53544,54.38674 l -0.14015,0.655251 -13.97384,-0.0432 c -7.6856,-0.02379 -28.91814,-0.20738 -47.18341,-0.407998 z m -36.473773,-3.35671 c 60.392663,-0.46663 92.268193,-0.773981 92.376493,-0.890699 0.17902,-0.192932 9.83452,-71.671582 9.7002,-71.809402 -0.0722,-0.0741 -7.965,0.27165 -17.53958,0.76824 -9.57458,0.49661 -26.34939,1.3641 -37.27733,1.92778 -10.92794,0.56369 -31.045283,1.60464 -44.705203,2.31321 -13.65993,0.70859 -35.75707,1.8414 -49.10476,2.51737 -13.3477,0.67598 -24.3016023,1.25058 -24.3420063,1.27691 -0.04041,0.0263 2.2906533,14.41673 5.1801273,31.978681 2.889474,17.56197 5.253589,32.074569 5.253589,32.250261 0,0.229179 3.02676,0.269938 10.71506,0.144319 5.89328,-0.0963 28.27781,-0.310811 49.74341,-0.47667 z"
       id="path822-2"
       inkscape:connector-curvature="0" />
  </g>
  <g
     inkscape:label="Layer 1"
     inkscape:groupmode="layer"
     id="layer1"
     transform="translate(0,-217.62498)"
     style="display:inline">
    <path
       style="fill:#f7b519;fill-opacity:0.59116025;stroke:none;stroke-width:0.28751126"
       d="m 114.21485,295.54328 c -18.265262,-0.20062 -48.409345,-0.51787 -66.98684,-0.70501 -18.577494,-0.18714 -33.860271,-0.42946 -33.961725,-0.53849 -0.255778,-0.27484 -13.33331706,-69.71686 -13.16233844,-69.89229 0.076029,-0.078 4.64291074,-0.31539 10.14862644,-0.52753 19.143665,-0.73763 132.045857,-4.57111 157.324677,-5.34182 5.30785,-0.16182 11.03386,-0.36904 12.72446,-0.46048 l 3.07382,-0.16628 -0.17507,1.54604 c -0.0963,0.85033 -1.06504,10.52315 -2.15277,21.49513 -3.04445,30.70942 -5.38065,53.66303 -5.53544,54.38674 l -0.14015,0.65525 -13.97384,-0.0432 c -7.6856,-0.0238 -28.91814,-0.20738 -47.18341,-0.408 z m -36.473765,-3.35671 c 60.392655,-0.46663 92.268185,-0.77398 92.376485,-0.8907 0.17902,-0.19293 9.83452,-71.67158 9.7002,-71.8094 -0.0722,-0.0741 -7.965,0.27165 -17.53958,0.76824 -9.57458,0.49661 -26.34939,1.3641 -37.27733,1.92778 -10.92794,0.56369 -31.045268,1.60464 -44.705192,2.31321 -13.659924,0.70859 -35.757066,1.8414 -49.104762,2.51737 -13.347697,0.67598 -24.3015965,1.25058 -24.3420005,1.27691 -0.040405,0.0263 2.2906521,14.41673 5.1801255,31.97868 2.889474,17.56197 5.253589,32.07457 5.253589,32.25026 0,0.22918 3.026759,0.26994 10.715058,0.14432 5.893281,-0.0963 28.277814,-0.31081 49.743407,-0.47667 z"
       id="path822"
       inkscape:connector-curvature="0" />
  </g>
</svg>
