<?xml version="1.0" encoding="UTF-8" standalone="no"?>
<!-- Created with Inkscape (http://www.inkscape.org/) -->

<svg
   xmlns:dc="http://purl.org/dc/elements/1.1/"
   xmlns:cc="http://creativecommons.org/ns#"
   xmlns:rdf="http://www.w3.org/1999/02/22-rdf-syntax-ns#"
   xmlns:svg="http://www.w3.org/2000/svg"
   xmlns="http://www.w3.org/2000/svg"
   xmlns:sodipodi="http://sodipodi.sourceforge.net/DTD/sodipodi-0.dtd"
   xmlns:inkscape="http://www.inkscape.org/namespaces/inkscape"
   width="102.1852mm"
   height="99.091232mm"
   viewBox="0 0 102.1852 99.091234"
   version="1.1"
   id="svg8"
   style="enable-background:new"
   inkscape:version="0.92.3 (2405546, 2018-03-11)">
  <defs
     id="defs2" />
  <sodipodi:namedview
     id="base"
     pagecolor="#ffffff"
     bordercolor="#666666"
     borderopacity="1.0"
     inkscape:pageopacity="0.0"
     inkscape:pageshadow="2"
     inkscape:zoom="1"
     inkscape:cx="229.21415"
     inkscape:cy="163.03228"
     inkscape:document-units="mm"
     inkscape:current-layer="layer1"
     showgrid="false"
     fit-margin-top="0"
     fit-margin-left="0"
     fit-margin-right="0"
     fit-margin-bottom="0"
     inkscape:window-width="1366"
     inkscape:window-height="705"
     inkscape:window-x="-8"
     inkscape:window-y="-8"
     inkscape:window-maximized="1" />
  <metadata
     id="metadata5">
    <rdf:RDF>
      <cc:Work
         rdf:about="">
        <dc:format>image/svg+xml</dc:format>
        <dc:type
           rdf:resource="http://purl.org/dc/dcmitype/StillImage" />
        <dc:title></dc:title>
      </cc:Work>
    </rdf:RDF>
  </metadata>
  <g
     inkscape:label="Layer 1"
     inkscape:groupmode="layer"
     id="layer1"
     transform="translate(87.104578,-206.27058)">
    <g
       id="g1008"
       transform="matrix(0.45048257,0,0,0.45048257,-12.823571,177.95036)"
       style="fill:#f7ad2e;fill-opacity:0.57458562">
      <path
         inkscape:connector-curvature="0"
         id="path984"
         d="m 1.0760124,280.6336 c -1.08333002,-1.00399 -2.15146,-2.61984 -2.37361,-3.59077 -2.92015,-12.76243 -4.94889,-23.0216 -4.94889,-25.02608 0,-3.59538 1.55645,-5.34514 9.45014,-10.6238 L 10.254372,236.678 7.6907824,226.87359 c -1.40997,-5.39243 -3.12845,-12.01558 -3.81884,-14.71811 -0.69039,-2.70253 -1.47275,-5.16103 -1.73857,-5.46333 -0.26583,-0.30231 -2.42380002,0.97336 -4.79549,2.83482 -2.8408,2.22965 -5.05612,3.38447 -6.49251,3.38447 -1.8035904,0 -7.9470604,-1.21818 -21.1125804,-4.18637 -4.4404,-1.0011 -6.33424,-7.03606 -3.19357,-10.17673 1.96516,-1.96516 5.12079,-1.90319 14.90079,0.29262 l 7.71925,1.73312 7.0218304,-5.5504 c 11.44944,-9.05022 19.0726896,-10.0845 27.4172096,-3.71982 4.71247,3.59437 6.04682,7.06178 11.35309,29.50184 6.0162,25.44236 7.58095,28.86738 18.85493,41.27103 3.95382,4.35001 7.39097,8.82866 7.63812,9.95255 0.66879,3.04134 -1.5508,7.05704 -4.73609,8.56855 -4.67299,2.21749 -6.9891,0.88888 -16.26735,-9.33158 -6.78931,-7.47877 -8.73867,-10.21061 -11.90235,-16.67999 -2.74059,-5.60424 -4.05203,-7.56924 -4.75835,-7.12975 -4.85785,3.02273 -12.63989,8.72554 -12.63989,9.26272 0,0.36984 0.85412,4.62291 1.89804,9.45126 1.04392,4.82835 1.68714,9.61906 1.42939,10.64604 -1.31135,5.22481 -9.3886496,7.52709 -13.3918296,3.81707 z"
         style="opacity:1;fill:#f7ad2e;fill-opacity:0.57458562;stroke:#f4d7d7;stroke-width:0.75595242" />
      <path
         inkscape:connector-curvature="0"
         id="path986"
         d="m -3.3201676,183.46706 c -9.7353604,-5.29437 -10.7918704,-18.65191 -1.98015,-25.03509 5.65607998,-4.09724 13.0972,-3.68675 18.4557496,1.01813 3.41651,2.99974 4.78855,6.18985 4.78855,11.13384 0,8.15485 -5.47483,13.73326 -13.8842496,14.14693 -3.50443002,0.17239 -5.30644,-0.13621 -7.3799,-1.26381 z"
         style="opacity:1;fill:#f7ad2e;fill-opacity:0.57458562;stroke:#f4d7d7;stroke-width:0.75595242" />
      <path
         inkscape:connector-curvature="0"
         id="path988"
         d="m -159.63195,280.74702 c -0.99935,-0.51359 -2.49641,-1.84904 -3.3268,-2.96767 l -1.50979,-2.03386 2.09203,-5.90364 c 3.48643,-9.83858 28.09053,-67.40853 30.387,-71.10107 3.30518,-5.31448 5.26116,-6.40295 12.5458,-6.98153 3.47468,-0.27597 6.72552,-0.75388 7.2241,-1.06202 2.44671,-1.51215 4.51544,-9.66015 6.16373,-24.27686 1.33029,-11.79665 1.59774,-13.18334 2.76847,-14.35407 1.42862,-1.42862 5.571772,-1.48363 7.465212,-0.0991 1.35873,0.99353 1.3838,1.5493 0.52007,11.52828 -1.48984,17.21269 -6.268532,36.87217 -10.266062,42.23442 -0.92987,1.24732 -2.16307,3.45848 -2.74046,4.91369 -0.57738,1.45521 -3.52229,8.08869 -6.54424,14.74107 l -5.49444,12.09524 5.64565,5.68636 5.64566,5.68638 -0.003,4.141 c -0.004,5.24649 -2.6875,23.65124 -3.73262,25.60407 -1.20228,2.24648 -5.65345,3.47018 -8.43371,2.31856 -4.66808,-1.93358 -5.32752,-5.62584 -3.41504,-19.12128 l 0.9465,-6.67897 -5.31327,-4.84931 c -2.9223,-2.66712 -5.57606,-4.84931 -5.89725,-4.84931 -0.8144,0 -3.54375,5.55723 -8.16804,16.63095 -5.07462,12.15215 -6.53714,15.0342 -8.919,17.57589 -2.11812,2.26025 -4.69098,2.63836 -7.64003,1.12279 z"
         style="opacity:1;fill:#f7ad2e;fill-opacity:0.57458562;stroke:#f4d7d7;stroke-width:0.75595242" />
      <path
         inkscape:connector-curvature="0"
         id="path990"
         d="m -131.71565,185.85205 c -1.44479,-0.79639 -3.65595,-2.71942 -4.91369,-4.27339 -2.03871,-2.51891 -2.28679,-3.37737 -2.28679,-7.91331 0,-4.13686 0.34051,-5.58486 1.82171,-7.74652 4.19235,-6.11833 11.36068,-8.18969 17.41125,-5.03116 9.78361,5.10726 11.07563,17.33051 2.52152,23.85504 -3.56684,2.72057 -10.65131,3.26057 -14.554,1.10934 z"
         style="opacity:1;fill:#f7ad2e;fill-opacity:0.57458562;stroke:#f4d7d7;stroke-width:0.75595242" />
      <path
         inkscape:connector-curvature="0"
         id="path992"
         d="m -94.881928,280.88659 c -2.95422,-1.72068 -3.59075,-4.65574 -3.59075,-16.55713 0,-12.74395 0.81076,-16.12765 4.17038,-17.40497 1.08661,-0.41314 5.69548,-0.75115 10.24192,-0.75115 h 8.26627 v -7.66434 -7.66434 l -10.96131,-11.23169 -10.96131,-11.23169 v -5.19542 c 0,-6.8793 2.0244,-18.23457 3.55171,-19.92223 2.67218,-2.95273 8.54353,-0.4235 8.54353,3.68035 0,0.94473 -0.37631,5.17673 -0.83623,9.40445 l -0.83623,7.68676 2.97738,2.97739 2.97739,2.97739 16.19069,-1.37409 16.19069,-1.37409 0.25355,-4.53571 c 0.13946,-2.49464 -0.33536,-8.9924 -1.05516,-14.43945 -0.71979,-5.44706 -1.09335,-10.76181 -0.83013,-11.81056 0.62333,-2.48355 4.38229,-4.14952 6.83803,-3.0306 1.24893,0.56904 2.07959,2.03125 2.95891,5.2085 2.21217,7.99329 2.78461,14.0524 2.7904,29.53534 l 0.006,15.29061 -1.88988,1.23829 -1.88988,1.2383 v 20.63294 20.63293 l 7.86017,0.25781 c 6.35108,0.2083 8.15705,0.52683 9.40655,1.6591 3.30274,2.99286 2.67494,9.25368 -1.10041,10.97385 -1.15512,0.52631 -6.74142,0.85401 -14.5582,0.85401 -16.35353,0 -15.97121,0.28619 -15.97121,-11.95497 v -8.45574 h -13.98511 -13.98512 l -0.0754,7.37053 c -0.0968,9.47016 -0.50961,10.85185 -3.72619,12.47204 -2.95467,1.48828 -5.02785,1.63923 -6.97079,0.50758 z"
         style="opacity:1;fill:#f7ad2e;fill-opacity:0.57458562;stroke:#f4d7d7;stroke-width:0.75595242" />
      <path
         inkscape:connector-curvature="0"
         id="path994"
         d="m -71.252998,201.92073 c -5.27579,-2.36958 -9.07683,-7.76257 -9.07683,-12.87836 0,-4.11744 3.30306,-9.60166 7.0565,-11.71622 9.1808,-5.17217 20.15779,1.23874 20.15779,11.77279 0,2.22859 -0.56734,4.8612 -1.37023,6.35829 -3.12428,5.82554 -11.2304,8.95033 -16.76723,6.4635 z"
         style="opacity:1;fill:#f7ad2e;fill-opacity:0.57458562;stroke:#f4d7d7;stroke-width:0.75595242" />
      <path
         inkscape:connector-curvature="0"
         id="path996"
         d="m -32.218208,194.71898 c -2.38645,-1.87719 -3.11396,-4.3168 -7.36804,-24.70784 -2.52616,-12.10862 -3.44425,-15.31049 -4.39271,-15.31981 -0.6595,-0.006 -6.81203,-0.66044 -13.6723,-1.45325 -6.86026,-0.79283 -12.68297,-1.21275 -12.93935,-0.93318 -0.25638,0.27958 -1.3427,4.77282 -2.41406,9.98497 -2.4654,11.9942 -2.962,13.24648 -5.9834,15.08863 -6.1021,3.72045 -13.43018,-0.18153 -13.44227,-7.15759 -0.009,-4.92121 6.0344,-30.73375 7.76753,-33.17923 2.61555,-3.69058 5.12096,-4.26106 13.78239,-3.13823 4.15774,0.53899 7.64479,0.90347 7.74902,0.80995 0.34464,-0.30926 5.48014,-26.35077 5.48014,-27.78918 0,-0.77539 -3.74196,-9.101662 -8.31547,-18.502825 -4.57351,-9.401162 -8.31548,-18.017678 -8.31548,-19.147811 0,-3.051398 3.33378,-6.043483 6.71767,-6.029143 1.50245,0.0064 3.242,0.330952 3.86566,0.721302 0.62366,0.390348 4.36563,7.267779 8.31548,15.283175 l 7.18155,14.573448 10.25424,2.281142 c 10.14836,2.25759 10.35201,2.34444 19.72495,8.411902 l 9.4707304,6.13076 5.32096,-5.18582 c 4.79391,-4.67214 5.6227,-5.18582 8.36707,-5.18582 2.47341,0 3.41405,0.43729 5.00318,2.32586 3.2182496,3.82468 2.6766896,5.95917 -3.10127,12.22309 -2.78208,3.01609 -5.75865,6.28161 -6.61458002,7.25673 -2.06676998,2.35458 -5.15493998,3.90019 -7.75529998,3.88147 -1.24872,-0.009 -4.7391504,-1.69117 -8.5136304,-4.10308 -3.51847,-2.24832 -6.60278,-3.96082 -6.85401,-3.80555 -0.25124,0.15528 -1.42542,5.14831 -2.6093,11.09565 l -2.15251,10.81333 5.04903,23.43452 c 2.77696,12.88899 5.04396,24.40404 5.03777,25.58899 -0.008,1.43251 -0.87254,3.01575 -2.5815,4.72471 -2.23281,2.2328 -3.063,2.57023 -6.32365,2.57023 -2.64849,0 -4.33778,-0.45967 -5.73854,-1.5615 z"
         style="opacity:1;fill:#f7ad2e;fill-opacity:0.57458562;stroke:#f4d7d7;stroke-width:0.75595242" />
      <path
         inkscape:connector-curvature="0"
         id="path998"
         d="m -39.287428,90.701381 c -7.50448,-4.865995 -8.88655,-14.501799 -3.03579,-21.16545 6.14648,-7.000454 17.17758,-6.304729 22.27975,1.405173 1.70251,2.572663 2.07971,3.98534 2.07971,7.788783 0,3.803444 -0.3772,5.216123 -2.07971,7.788786 -4.14624,6.265389 -13.04805,8.200212 -19.24396,4.182708 z"
         style="opacity:1;fill:#f7ad2e;fill-opacity:0.57458562;stroke:#f4d7d7;stroke-width:0.75595242" />
    </g>
  </g>
</svg>
