<?xml version="1.0" encoding="UTF-8" standalone="no"?>
<!-- Created with Inkscape (http://www.inkscape.org/) -->

<svg
   xmlns:dc="http://purl.org/dc/elements/1.1/"
   xmlns:cc="http://creativecommons.org/ns#"
   xmlns:rdf="http://www.w3.org/1999/02/22-rdf-syntax-ns#"
   xmlns:svg="http://www.w3.org/2000/svg"
   xmlns="http://www.w3.org/2000/svg"
   xmlns:sodipodi="http://sodipodi.sourceforge.net/DTD/sodipodi-0.dtd"
   xmlns:inkscape="http://www.inkscape.org/namespaces/inkscape"
   width="400"
   height="400"
   viewBox="0 0 105.83333 105.83334"
   version="1.1"
   id="svg837"
   inkscape:export-filename="D:\Projects\aarya-portal\img\we-provide-bg.png"
   inkscape:export-xdpi="95.599998"
   inkscape:export-ydpi="95.599998"
   inkscape:version="0.92.3 (2405546, 2018-03-11)"
   sodipodi:docname="we-provide-bg.svg">
  <defs
     id="defs831" />
  <sodipodi:namedview
     id="base"
     pagecolor="#ffffff"
     bordercolor="#666666"
     borderopacity="1.0"
     inkscape:pageopacity="0.0"
     inkscape:pageshadow="2"
     inkscape:zoom="1"
     inkscape:cx="310.62362"
     inkscape:cy="160.78289"
     inkscape:document-units="mm"
     inkscape:current-layer="layer2"
     showgrid="false"
     units="px"
     inkscape:window-width="1366"
     inkscape:window-height="705"
     inkscape:window-x="-8"
     inkscape:window-y="-8"
     inkscape:window-maximized="1" />
  <metadata
     id="metadata834">
    <rdf:RDF>
      <cc:Work
         rdf:about="">
        <dc:format>image/svg+xml</dc:format>
        <dc:type
           rdf:resource="http://purl.org/dc/dcmitype/StillImage" />
        <dc:title></dc:title>
      </cc:Work>
    </rdf:RDF>
  </metadata>
  <g
     inkscape:label="Layer 1"
     inkscape:groupmode="layer"
     id="layer1"
     transform="translate(0,-191.16663)"
     style="opacity:0.27">
    <path
       style="fill:#f7b519;fill-opacity:0.71270716;stroke:none"
       d=""
       id="path5690"
       inkscape:connector-curvature="0"
       transform="matrix(0.26458333,0,0,0.26458333,0,191.16663)" />
    <g
       id="g5702"
       transform="translate(-111.86911,-3.593032)"
       style="fill:#f78319;fill-opacity:1">
      <path
         inkscape:connector-curvature="0"
         id="path5676"
         d="m 132.4621,236.51973 c -1.62477,-0.45069 -2.94659,-1.48696 -3.83893,-3.00962 -0.9573,-1.63352 -1.03364,-4.39854 -0.16632,-6.02405 2.65226,-4.97081 9.77966,-4.61122 11.72629,0.59161 0.64222,1.71649 0.6642,2.75239 0.0939,4.42606 -1.04997,3.08149 -4.60252,4.9071 -7.81497,4.016 z"
         style="fill:#f78319;fill-opacity:1;stroke:none;stroke-width:0.26458332" />
      <path
         inkscape:connector-curvature="0"
         id="path5678"
         d="m 144.15125,249.86303 c -1.36716,-0.28001 -2.4595,-0.92823 -3.43341,-2.03744 -1.18228,-1.34655 -1.59367,-2.44928 -1.59367,-4.27179 0,-3.82386 3.03666,-6.63716 6.86518,-6.36024 3.20625,0.23193 5.58008,2.65402 5.78707,5.90474 0.13074,2.05317 -0.21947,3.16877 -1.44371,4.59901 -1.54591,1.80606 -3.9039,2.6322 -6.18146,2.16572 z"
         style="fill:#f78319;fill-opacity:1;stroke:none;stroke-width:0.26458332" />
      <path
         inkscape:connector-curvature="0"
         id="path5680"
         d="m 137.13979,265.88005 c -1.30896,-0.57183 -2.49921,-1.73852 -3.21531,-3.15168 -0.95007,-1.87486 -0.82393,-4.31475 0.31859,-6.16273 2.58447,-4.18029 8.88498,-3.94731 11.09309,0.41018 1.67469,3.30484 0.16441,7.49897 -3.20769,8.90792 -1.09322,0.45677 -3.93945,0.45467 -4.98868,-0.004 z"
         style="fill:#f78319;fill-opacity:1;stroke:none;stroke-width:0.26458332" />
      <path
         inkscape:connector-curvature="0"
         id="path5682"
         d="m 119.93163,268.9255 c -0.58771,-0.26696 -1.56356,-1.04773 -2.16854,-1.73502 -2.15574,-2.44905 -2.15574,-5.78688 0,-8.23593 1.37943,-1.56712 2.77456,-2.21866 4.76697,-2.22622 3.68559,-0.014 6.38808,2.66992 6.38808,6.34419 0,2.63357 -1.51455,4.95539 -3.87454,5.93971 -1.33525,0.55692 -3.78656,0.51533 -5.11197,-0.0867 z"
         style="fill:#f78319;fill-opacity:1;stroke:none;stroke-width:0.26458332" />
      <path
         inkscape:connector-curvature="0"
         id="path5684"
         d="m 109.0006,255.89028 c -1.30567,-0.37581 -3.37392,-2.56042 -3.75401,-3.96521 -0.6658,-2.46075 0.086,-5.39406 1.76729,-6.89582 1.7599,-1.57195 4.85844,-1.96732 7.10716,-0.90688 1.57647,0.74343 2.29505,1.47501 3.02048,3.07515 1.0481,2.31186 0.43088,5.7069 -1.33182,7.32576 -1.59382,1.46376 -4.46813,2.04081 -6.8091,1.367 z"
         style="fill:#f78319;fill-opacity:1;stroke:none;stroke-width:0.26458332" />
      <path
         inkscape:connector-curvature="0"
         id="path5686"
         d="m 115.92719,239.76335 c -1.57328,-0.29101 -2.5418,-0.85825 -3.62386,-2.12239 -1.22237,-1.42806 -1.57252,-2.54442 -1.44183,-4.59683 0.1379,-2.16572 1.16795,-3.90086 2.9812,-5.02191 1.14643,-0.70878 1.52784,-0.80075 3.32105,-0.80075 1.79321,0 2.17462,0.092 3.32105,0.80075 2.70402,1.67177 3.76156,5.07108 2.49417,8.0172 -1.20014,2.78981 -4.02814,4.28323 -7.05178,3.72393 z"
         style="fill:#f78319;fill-opacity:1;stroke:none;stroke-width:0.26458332" />
      <path
         inkscape:connector-curvature="0"
         id="path5688"
         d="m 149.10359,273.64419 c -1.92134,-0.47656 -3.86183,-1.82201 -4.55159,-3.15585 -0.37087,-0.71717 -0.35805,-0.73584 1.53086,-2.22875 l 1.90485,-1.50551 0.1804,1.04483 c 0.43064,2.49403 1.88753,4.065 4.09756,4.4184 1.40271,0.2243 2.63143,-0.35347 4.06949,-1.91358 2.06986,-2.24554 2.17024,-2.71862 2.20514,-10.39211 l 0.0307,-6.76098 0.74814,-1.52355 c 0.83412,-1.69864 1.90633,-2.64679 3.80029,-3.36056 1.79458,-0.67632 4.40125,-0.94703 4.75643,-0.49397 0.21186,0.27024 1.14618,3.52255 1.14618,3.98979 0,0.0497 -0.77084,0.0414 -1.71299,-0.0186 -2.11281,-0.13453 -2.78048,0.0241 -3.83447,0.91095 -1.57545,1.32565 -1.91878,2.43914 -2.15169,6.97825 -0.2654,5.17253 -0.833,7.32515 -2.61409,9.91387 -2.03489,2.95762 -6.50783,4.86568 -9.60525,4.0974 z"
         style="fill:#f78319;fill-opacity:1;stroke:none;stroke-width:0.26458332" />
      <path
         inkscape:connector-curvature="0"
         id="path5692"
         d="m 125.75176,251.99185 c -2.99089,-1.35857 -4.14334,-4.96466 -2.55704,-8.00118 1.06804,-2.04445 2.69908,-3.01086 5.08153,-3.01086 1.4973,0 1.95471,0.11958 3.05176,0.79783 3.88031,2.39902 3.57303,8.35171 -0.52727,10.21421 -1.3886,0.63076 -3.66038,0.63076 -5.04898,0 z m 4.81143,-1.9103 c 1.62523,-0.99876 2.20464,-3.74306 1.15407,-5.46614 -2.06946,-3.39419 -7.40525,-1.97571 -7.40877,1.96957 -0.001,1.41634 0.28687,2.15348 1.19702,3.06234 1.32362,1.32174 3.33277,1.49424 5.05768,0.43423 z"
         style="fill:#f78319;fill-opacity:1;stroke:none;stroke-width:0.26458332" />
    </g>
  </g>
  <g
     inkscape:groupmode="layer"
     id="layer3"
     inkscape:label="Layer 3"
     style="display:inline;opacity:0.381">
    <g
       transform="translate(-111.46986,-190.36131)"
       id="g5670"
       style="fill:#f7b519;fill-opacity:1">
      <path
         inkscape:connector-curvature="0"
         id="path5664"
         d="m 125.49906,278.69861 c -7.71209,-7.72123 -13.94439,-14.03859 -13.84955,-14.03859 0.0948,0 1.04453,0.53768 2.11043,1.19485 2.11392,1.30332 4.87967,2.44117 7.76944,3.19641 2.90101,0.75817 9.82203,0.69519 12.83229,-0.11678 2.75736,-0.74376 5.73376,-2.01194 7.7519,-3.30293 1.61918,-1.03578 2.02356,-1.19527 1.53357,-0.60487 -0.51753,0.62358 1.17411,2.52701 3.16196,3.55784 1.57194,0.81514 1.86671,0.87843 3.70597,0.79563 1.67214,-0.0753 2.32819,-0.25305 4.0206,-1.08952 2.27038,-1.12214 3.51268,-2.3725 4.72445,-4.75511 1.09753,-2.158 1.57318,-4.52179 1.79975,-8.94412 0.17166,-3.35044 0.27933,-3.99684 0.82853,-4.97401 1.06382,-1.8928 3.16507,-2.71977 5.54946,-2.18403 0.64515,0.14495 1.20061,0.23594 1.23436,0.2022 0.0337,-0.0337 -0.16935,-0.94979 -0.45132,-2.03565 -0.28196,-1.08586 -0.51471,-2.03283 -0.5172,-2.10438 -0.002,-0.0716 2.66087,2.53335 5.91859,5.78866 l 5.92313,5.91873 -0.52908,1.88427 c -4.55445,16.22037 -18.04478,29.73893 -34.36422,34.43616 -1.75617,0.50548 -3.6291,0.98538 -4.16206,1.06645 l -0.96902,0.14739 z"
         style="fill:#f7b519;fill-opacity:1;stroke:none;stroke-width:0.26458332" />
      <path
         inkscape:connector-curvature="0"
         id="path5666"
         d="m 150.29184,267.12917 c -1.45319,-0.71621 -1.99612,-1.64966 -2.56918,-4.41708 -0.14651,-0.70754 -0.18779,-0.72927 -0.62818,-0.33073 -1.16305,1.05255 -0.67259,0.24194 1.09571,-1.81093 4.96155,-5.76 7.36248,-12.54745 6.97659,-19.72291 -0.25476,-4.73701 -1.99699,-10.13202 -4.39978,-13.62435 -0.46526,-0.67623 -0.79938,-1.27606 -0.74249,-1.33294 0.0569,-0.0569 3.95011,3.7446 8.6516,8.44776 l 8.54817,8.5512 -1.88159,0.13463 c -2.66688,0.19082 -5.07757,1.39742 -6.14047,3.07342 -1.27396,2.00883 -1.39276,2.83609 -1.41191,9.83153 -0.0149,5.45348 -0.0876,6.63722 -0.45823,7.4585 -0.53455,1.1847 -2.43215,3.29032 -3.43053,3.8066 -0.95999,0.49643 -2.52821,0.46833 -3.60971,-0.0647 z"
         style="fill:#f7b519;fill-opacity:1;stroke:none;stroke-width:0.26458332" />
    </g>
  </g>
  <g
     inkscape:groupmode="layer"
     id="layer2"
     inkscape:label="Layer 2"
     style="display:inline;opacity:0.309">
    <path
       style="fill:#f7b519;fill-opacity:0.71270716;stroke:none;stroke-width:0.26458332"
       d="M 12.388754,102.83843 C -6.4003166,100.42185 -22.526664,87.35056 -28.87442,69.392347 c -5.212207,-14.74568 -3.275589,-31.23647 5.20451,-44.31771 5.183534,-7.99602 12.149654,-14.11632 20.7691934,-18.24742 11.85766,-5.68304 25.3894306,-6.52723 37.9030906,-2.36462 18.17207,6.04486 31.429917,21.97576 34.136697,41.01938 0.74806,5.26298 0.36618,14.42161 -0.76411,18.32551 l -0.29941,1.03414 -5.874777,-5.92672 c -3.23113,-3.2597 -6.02306,-6.04579 -6.20429,-6.19131 -0.18122,-0.14552 -5.39999,-5.33129 -11.59725,-11.52393 -12.05532,-12.04633 -12.91644,-12.77225 -17.37798,-14.64959 -2.68539,-1.12997 -4.86495,-1.66934 -8.2825,-2.04964 -3.55129,-0.3952 -7.78826,0.15031 -11.5160406,1.48266 -16.8919103,6.03741 -23.6333694,26.14657 -13.7548503,41.02947 1.1086403,1.67026 4.9079403,5.611583 17.9684209,18.640083 9.10937,9.08708 16.47328,16.60473 16.36425,16.70588 -0.72146,0.66935 -11.36253,1.0007 -15.41178,0.4799 z"
       id="path5657"
       inkscape:connector-curvature="0" />
  </g>
</svg>
